# xmcd CD database file
#
# Track frame offsets:
#	150
#	12512
#	31332
#	44772
#	62012
#	81017
#	99645
#	111517
#	131982
#	147130
#
# Disc length: 2113 seconds
#
# Revision: 0
# Processed by: cddbd v1.5.1PL0 Copyright (c) Steve Scherf et al.
# Submitted via: CDex 1.51
#
DISCID=90083f0a
DTITLE=Phillip Walker - Someday you'll have these blues
DYEAR=1991
DGENRE=Blues
TTITLE0=Someday you'll have these blues
TTITLE1=Beaumont Blues
TTITLE2=Breakin' up somebody's home
TTITLE3=Mama's Gone
TTITLE4=When it needs gettin' done
TTITLE5=Sure is cold
TTITLE6=Part time love
TTITLE7=El Paso Blues
TTITLE8=Don't tell me
TTITLE9=If we can find it
EXTD=YEAR: 1991
EXTT0=
EXTT1=
EXTT2=
EXTT3=
EXTT4=
EXTT5=
EXTT6=
EXTT7=
EXTT8=
EXTT9=
PLAYORDER=
